<svg xmlns="http://www.w3.org/2000/svg" version="1.1" xmlns:xlink="http://www.w3.org/1999/xlink" xmlns:svgjs="http://svgjs.dev/svgjs" width="1440" height="560" preserveAspectRatio="none" viewBox="0 0 1440 560"><g mask="url(&quot;#SvgjsMask1012&quot;)" fill="none"><rect width="1440" height="560" x="0" y="0" fill="rgba(85, 162, 243, 1)"></rect><path d="M251 161L250 -189" stroke-width="6" stroke="url(&quot;#SvgjsLinearGradient1013&quot;)" stroke-linecap="round" class="Up"></path><path d="M234 457L233 198" stroke-width="6" stroke="url(&quot;#SvgjsLinearGradient1014&quot;)" stroke-linecap="round" class="Down"></path><path d="M953 240L952 -68" stroke-width="10" stroke="url(&quot;#SvgjsLinearGradient1013&quot;)" stroke-linecap="round" class="Up"></path><path d="M1041 237L1040 492" stroke-width="6" stroke="url(&quot;#SvgjsLinearGradient1013&quot;)" stroke-linecap="round" class="Up"></path><path d="M996 447L995 733" stroke-width="10" stroke="url(&quot;#SvgjsLinearGradient1014&quot;)" stroke-linecap="round" class="Down"></path><path d="M1208 137L1207 -28" stroke-width="10" stroke="url(&quot;#SvgjsLinearGradient1014&quot;)" stroke-linecap="round" class="Down"></path><path d="M533 558L532 372" stroke-width="6" stroke="url(&quot;#SvgjsLinearGradient1014&quot;)" stroke-linecap="round" class="Down"></path><path d="M120 395L119 608" stroke-width="10" stroke="url(&quot;#SvgjsLinearGradient1013&quot;)" stroke-linecap="round" class="Up"></path><path d="M196 449L195 175" stroke-width="6" stroke="url(&quot;#SvgjsLinearGradient1013&quot;)" stroke-linecap="round" class="Up"></path><path d="M416 158L415 -174" stroke-width="6" stroke="url(&quot;#SvgjsLinearGradient1014&quot;)" stroke-linecap="round" class="Down"></path><path d="M842 387L841 135" stroke-width="10" stroke="url(&quot;#SvgjsLinearGradient1014&quot;)" stroke-linecap="round" class="Down"></path><path d="M895 71L894 436" stroke-width="6" stroke="url(&quot;#SvgjsLinearGradient1014&quot;)" stroke-linecap="round" class="Down"></path><path d="M584 266L583 611" stroke-width="8" stroke="url(&quot;#SvgjsLinearGradient1014&quot;)" stroke-linecap="round" class="Down"></path><path d="M223 331L222 -77" stroke-width="8" stroke="url(&quot;#SvgjsLinearGradient1013&quot;)" stroke-linecap="round" class="Up"></path><path d="M661 168L660 9" stroke-width="6" stroke="url(&quot;#SvgjsLinearGradient1013&quot;)" stroke-linecap="round" class="Up"></path><path d="M892 144L891 -5" stroke-width="6" stroke="url(&quot;#SvgjsLinearGradient1013&quot;)" stroke-linecap="round" class="Up"></path><path d="M409 22L408 421" stroke-width="6" stroke="url(&quot;#SvgjsLinearGradient1014&quot;)" stroke-linecap="round" class="Down"></path><path d="M874 33L873 428" stroke-width="10" stroke="url(&quot;#SvgjsLinearGradient1014&quot;)" stroke-linecap="round" class="Down"></path><path d="M1177 485L1176 830" stroke-width="8" stroke="url(&quot;#SvgjsLinearGradient1013&quot;)" stroke-linecap="round" class="Up"></path><path d="M1288 394L1287 60" stroke-width="10" stroke="url(&quot;#SvgjsLinearGradient1013&quot;)" stroke-linecap="round" class="Up"></path><path d="M381 363L380 203" stroke-width="10" stroke="url(&quot;#SvgjsLinearGradient1013&quot;)" stroke-linecap="round" class="Up"></path><path d="M483 392L482 613" stroke-width="6" stroke="url(&quot;#SvgjsLinearGradient1013&quot;)" stroke-linecap="round" class="Up"></path><path d="M714 375L713 71" stroke-width="6" stroke="url(&quot;#SvgjsLinearGradient1013&quot;)" stroke-linecap="round" class="Up"></path><path d="M844 159L843 -119" stroke-width="10" stroke="url(&quot;#SvgjsLinearGradient1014&quot;)" stroke-linecap="round" class="Down"></path><path d="M133 385L132 764" stroke-width="6" stroke="url(&quot;#SvgjsLinearGradient1013&quot;)" stroke-linecap="round" class="Up"></path><path d="M612 283L611 639" stroke-width="10" stroke="url(&quot;#SvgjsLinearGradient1013&quot;)" stroke-linecap="round" class="Up"></path><path d="M100 388L99 105" stroke-width="10" stroke="url(&quot;#SvgjsLinearGradient1014&quot;)" stroke-linecap="round" class="Down"></path><path d="M252 408L251 554" stroke-width="6" stroke="url(&quot;#SvgjsLinearGradient1014&quot;)" stroke-linecap="round" class="Down"></path><path d="M1427 494L1426 191" stroke-width="10" stroke="url(&quot;#SvgjsLinearGradient1014&quot;)" stroke-linecap="round" class="Down"></path><path d="M639 520L638 821" stroke-width="6" stroke="url(&quot;#SvgjsLinearGradient1013&quot;)" stroke-linecap="round" class="Up"></path><path d="M413 504L412 854" stroke-width="6" stroke="url(&quot;#SvgjsLinearGradient1013&quot;)" stroke-linecap="round" class="Up"></path><path d="M877 43L876 241" stroke-width="8" stroke="url(&quot;#SvgjsLinearGradient1013&quot;)" stroke-linecap="round" class="Up"></path><path d="M952 27L951 305" stroke-width="10" stroke="url(&quot;#SvgjsLinearGradient1014&quot;)" stroke-linecap="round" class="Down"></path><path d="M502 353L501 9" stroke-width="10" stroke="url(&quot;#SvgjsLinearGradient1013&quot;)" stroke-linecap="round" class="Up"></path><path d="M1103 363L1102 74" stroke-width="6" stroke="url(&quot;#SvgjsLinearGradient1014&quot;)" stroke-linecap="round" class="Down"></path><path d="M1053 293L1052 681" stroke-width="6" stroke="url(&quot;#SvgjsLinearGradient1014&quot;)" stroke-linecap="round" class="Down"></path></g><defs><mask id="SvgjsMask1012"><rect width="1440" height="560" fill="#ffffff"></rect></mask><linearGradient x1="0%" y1="100%" x2="0%" y2="0%" id="SvgjsLinearGradient1013"><stop stop-color="rgba(198, 219, 241, 0)" offset="0"></stop><stop stop-color="rgba(198, 219, 241, 1)" offset="1"></stop></linearGradient><linearGradient x1="0%" y1="0%" x2="0%" y2="100%" id="SvgjsLinearGradient1014"><stop stop-color="rgba(198, 219, 241, 0)" offset="0"></stop><stop stop-color="rgba(198, 219, 241, 1)" offset="1"></stop></linearGradient></defs></svg>